<?xml version="1.0" standalone="no"?>
<!DOCTYPE svg PUBLIC "-//W3C//DTD SVG 20010904//EN"
 "http://www.w3.org/TR/2001/REC-SVG-20010904/DTD/svg10.dtd">
<svg version="1.0" xmlns="http://www.w3.org/2000/svg"
 width="337.000000pt" height="337.000000pt" viewBox="0 0 337.000000 337.000000"
 preserveAspectRatio="xMidYMid meet">
<metadata>
Created by potrace 1.11, written by Peter Selinger 2001-2013
</metadata>
<g transform="translate(0.000000,337.000000) scale(0.100000,-0.100000)"
fill="#000000" stroke="none">
<path d="M1645 3360 c-11 -5 -183 -172 -382 -372 -362 -363 -368 -370 -364
-432 1 -10 190 -207 420 -438 279 -278 418 -425 416 -436 -2 -9 -4 -24 -4 -32
-1 -8 -183 -197 -405 -420 -279 -279 -407 -414 -412 -434 -5 -20 -1 -38 11
-60 21 -34 662 -681 704 -708 27 -18 77 -23 98 -10 31 19 1616 1600 1627 1622
7 14 11 31 10 38 -1 6 -2 21 -3 31 -1 20 -1625 1650 -1645 1652 -6 0 -20 2
-31 4 -11 2 -29 0 -40 -5z"/>
<path d="M684 2398 c-10 -6 -166 -157 -346 -336 -213 -212 -329 -335 -333
-352 -3 -15 -1 -39 5 -54 6 -16 160 -178 343 -361 340 -340 359 -355 412 -335
11 4 170 157 353 340 328 328 332 333 332 373 0 41 -4 45 -342 384 -357 356
-372 368 -424 341z"/>
</g>
</svg>
