<svg xmlns="http://www.w3.org/2000/svg" width="127.6" height="36.25" viewBox="0 0 393.8 111.87"><title>{{ site.title | escape }} logo</title><path d="M53.25 50.89l2.24 2.24 1.69 1.67s.67 2.69-.56 3.92l-25.33 25.28a3.19 3.19 0 0 0 0 4.49l22.42 22.51a3.19 3.19 0 0 0 4.49 0l52.9-52.61a3.16 3.16 0 0 0 0-4.47l-52.94-53a3.18 3.18 0 0 0-4.48 0l-23 23a3.18 3.18 0 0 0 0 4.48z" fill="#24aa60"/><rect x="6.31" y="38.01" width="35.64" height="36.32" rx="3.17" ry="3.17" transform="translate(-32.65 33.51) rotate(-45)" fill="#8bc34a"/><path d="M163 17.62h8.2l30.24 77.11h-7.84l-9.4-24h-35.09l-9.29 24h-7.88zm-11.63 46.87h30.35l-14.9-39.49zM241.11 56.5a18.58 18.58 0 0 0-5.24-9.83q-3.83-3.56-10.53-3.56a17.18 17.18 0 0 0-8.53 2 18.75 18.75 0 0 0-6.1 5.4 24.54 24.54 0 0 0-3.71 7.66 31.11 31.11 0 0 0 0 17.39 24.54 24.54 0 0 0 3.67 7.61 18.52 18.52 0 0 0 6.1 5.4 17.18 17.18 0 0 0 8.53 2.05 15.1 15.1 0 0 0 5.94-1.18 15.87 15.87 0 0 0 5-3.3 17.46 17.46 0 0 0 3.56-5 18.32 18.32 0 0 0 1.73-6.37h6.81q-1.41 10.16-7.51 15.87t-15.5 5.73a25.52 25.52 0 0 1-11.27-2.37 24.51 24.51 0 0 1-8.26-6.37 27.58 27.58 0 0 1-5.08-9.34 38.2 38.2 0 0 1 0-22.73 27.58 27.58 0 0 1 5.08-9.4 24.64 24.64 0 0 1 8.26-6.37 25.65 25.65 0 0 1 11.28-2.37 24.23 24.23 0 0 1 15.18 4.75q6.21 4.76 7.39 14.36zM265.41 39h11.34v5.72h-11.34v37.59a12.1 12.1 0 0 0 .92 5.24q.92 1.89 4.58 2.1a54.42 54.42 0 0 0 5.84-.32v5.83c-1 0-2 0-3 .11s-2 .11-3 .11q-6.81 0-9.5-2.7t-2.6-9.83v-38.12h-9.71v-5.73h9.71v-16.73h6.81zM280.74 17.62h6.8v10.91h-6.8zm0 21.39h6.8v55.72h-6.8zM290.57 39h7.56l17.49 48.91h.22l17.27-48.91h7l-20.82 55.73h-7.23zM343.7 17.62h6.8v10.91h-6.8zm0 21.39h6.8v55.72h-6.8zM371.12 39h11.34v5.72h-11.34v37.59a12.25 12.25 0 0 0 .92 5.24q.91 1.89 4.59 2.1a54.09 54.09 0 0 0 5.83-.32v5.83c-1 0-2 0-3 .11s-2 .11-3 .11q-6.81 0-9.51-2.7t-2.59-9.83v-38.12h-9.76v-5.73h9.72v-16.73h6.8zM387 17.62h6.8v10.91h-6.8zm0 21.38h6.8v55.73h-6.8z" fill="#727173"/></svg>