<svg class="icon__logo" xmlns="http://www.w3.org/2000/svg" viewBox="-28.579 0.043 559.585 152.031"><path fill="#7A7D81" d="M133.156 123.088h9.08L152.93 95.22h40.42l10.82 27.868h9.078l-34.823-89.644h-9.457l-35.814 89.644zm40.167-81.102l17.165 45.95H155.54l17.783-45.95zm42.974 81.102h7.834V33.444h-7.833zm41.385-64.781h-12.68v-5.65c0-1.758.037-3.39.122-4.894.082-1.512.392-2.827.93-3.96.54-1.127 1.39-2.027 2.548-2.7 1.16-.667 2.82-1.003 4.98-1.003.91 0 1.823.064 2.736.187.907.126 1.903.272 2.98.44V33.95a60.196 60.196 0 0 0-3.354-.374c-1-.084-2.075-.132-3.235-.132-3.153 0-5.744.464-7.777 1.38-2.03.92-3.63 2.22-4.788 3.89-1.16 1.68-1.943 3.69-2.364 6.027-.41 2.347-.62 4.9-.62 7.66v5.905h-10.944v6.65h10.943v58.132H245v-58.13h12.68v-6.65h.002zm2.448 64.781h7.835V89.09c0-3.293.578-6.39 1.743-9.273 1.158-2.885 2.797-5.355 4.908-7.42 2.12-2.06 4.628-3.648 7.526-4.762 2.9-1.117 6.136-1.584 9.698-1.424v-7.903c-5.8-.252-10.797.895-14.985 3.45-4.184 2.56-7.27 6.466-9.264 11.742h-.245V58.306h-7.217v64.78zm84.833-30.255a46.38 46.38 0 0 0-1.245-12.678c-.988-4.17-2.627-7.86-4.91-11.078-2.28-3.21-5.24-5.812-8.893-7.798-3.646-1.984-8.04-2.974-13.182-2.974s-9.536.93-13.184 2.787c-3.65 1.858-6.637 4.31-8.957 7.36-2.315 3.04-4.04 6.502-5.162 10.378a42.727 42.727 0 0 0-1.676 11.868c0 4.35.56 8.48 1.677 12.396 1.123 3.914 2.848 7.357 5.163 10.326 2.32 2.967 5.307 5.315 8.956 7.057 3.646 1.746 8.042 2.61 13.183 2.61 8.124 0 14.403-2.03 18.84-6.09 4.44-4.058 7.485-9.772 9.144-17.14h-7.836c-1.242 4.943-3.48 8.938-6.714 11.994-3.235 3.052-7.712 4.583-13.433 4.583-3.73 0-6.94-.734-9.64-2.203-2.693-1.474-4.872-3.338-6.53-5.585-1.655-2.246-2.9-4.772-3.724-7.562-.837-2.79-1.25-5.54-1.25-8.253h49.373v.003zm-49.375-6.66a31.01 31.01 0 0 1 2.053-7.89c1.04-2.582 2.422-4.853 4.164-6.81 1.743-1.957 3.856-3.537 6.35-4.72 2.482-1.195 5.34-1.797 8.576-1.797 3.15 0 5.968.603 8.458 1.796 2.49 1.186 4.603 2.765 6.343 4.722 1.74 1.956 3.086 4.214 4.04 6.74a24.634 24.634 0 0 1 1.558 7.958l-41.54.002zm101.318-8.909c-.166-3.513-.872-6.57-2.113-9.165-1.245-2.593-2.923-4.77-5.032-6.528-2.118-1.76-4.565-3.057-7.342-3.892-2.78-.84-5.788-1.26-9.018-1.26-2.817 0-5.656.337-8.52 1.004-2.86.673-5.45 1.722-7.768 3.145-2.33 1.418-4.217 3.306-5.664 5.642-1.45 2.348-2.18 5.157-2.18 8.418 0 2.764.454 5.085 1.368 6.97a13.752 13.752 0 0 0 3.792 4.77c1.617 1.3 3.506 2.386 5.664 3.267 2.154.876 4.516 1.65 7.087 2.32l10.076 2.26c1.738.422 3.46.916 5.16 1.506 1.702.586 3.214 1.316 4.543 2.198a10.08 10.08 0 0 1 3.17 3.327c.787 1.337 1.183 2.928 1.183 4.774 0 2.257-.564 4.165-1.678 5.712-1.125 1.552-2.557 2.824-4.29 3.832a18.924 18.924 0 0 1-5.727 2.125c-2.07.425-4.02.632-5.847.632-5.224 0-9.593-1.36-13.12-4.08-3.523-2.722-5.452-6.76-5.79-12.115h-7.835c.667 7.955 3.344 13.75 8.026 17.39 4.69 3.64 10.804 5.457 18.348 5.457 2.987 0 6.01-.353 9.08-1.062 3.065-.715 5.825-1.84 8.27-3.395a19.397 19.397 0 0 0 6.034-6.03c1.57-2.468 2.36-5.456 2.36-8.972 0-2.853-.537-5.318-1.615-7.415-1.077-2.086-2.466-3.843-4.168-5.267-1.7-1.422-3.647-2.576-5.847-3.455a29.715 29.715 0 0 0-6.652-1.82l-10.448-2.388a52.232 52.232 0 0 1-4.353-1.315 20.404 20.404 0 0 1-4.353-2.076 11.53 11.53 0 0 1-3.302-3.07c-.87-1.212-1.295-2.7-1.295-4.458 0-2.086.447-3.854 1.36-5.272.906-1.426 2.116-2.576 3.612-3.455 1.485-.876 3.125-1.5 4.907-1.882 1.783-.38 3.545-.56 5.285-.56 2.237 0 4.35.263 6.346.814 1.982.54 3.752 1.396 5.282 2.573 1.533 1.165 2.76 2.653 3.67 4.457.915 1.796 1.405 3.91 1.493 6.34h7.84v-.003zm59.129 3.262c-.912-7.45-3.753-13.017-8.52-16.696-4.775-3.684-10.597-5.525-17.476-5.525-4.898 0-9.227.866-13 2.608-3.773 1.74-6.95 4.076-9.52 7-2.567 2.93-4.512 6.37-5.84 10.325-1.327 3.955-1.992 8.107-1.992 12.458 0 4.43.665 8.6 1.99 12.517 1.33 3.916 3.274 7.336 5.843 10.266s5.744 5.255 9.52 6.997c3.773 1.746 8.103 2.61 13 2.61 7.21 0 13.156-2.22 17.842-6.654 4.688-4.435 7.57-10.585 8.646-18.454h-7.836c-.245 2.68-.915 5.146-1.99 7.403-1.08 2.262-2.448 4.206-4.1 5.842a18.36 18.36 0 0 1-5.726 3.828c-2.15.923-4.438 1.38-6.84 1.38-3.734 0-7.01-.74-9.83-2.216-2.822-1.48-5.158-3.434-7.024-5.853-1.863-2.417-3.273-5.17-4.23-8.245a31.795 31.795 0 0 1-1.433-9.424c0-3.2.48-6.335 1.433-9.42.958-3.073 2.366-5.827 4.23-8.243 1.865-2.42 4.2-4.37 7.022-5.852 2.82-1.484 6.097-2.224 9.832-2.224 5.137 0 9.182 1.382 12.122 4.142 2.95 2.768 4.954 6.576 6.034 11.43h7.84v-.002zm33.653-22.219c-4.89 0-9.222.866-12.997 2.61-3.77 1.74-6.944 4.075-9.508 6.998-2.577 2.93-4.52 6.37-5.85 10.326-1.324 3.954-1.99 8.108-1.99 12.457 0 4.43.666 8.6 1.99 12.52 1.33 3.915 3.274 7.334 5.85 10.263 2.563 2.93 5.738 5.258 9.51 7 3.774 1.746 8.106 2.61 12.996 2.61 4.896 0 9.23-.866 13-2.61 3.773-1.742 6.944-4.07 9.517-7 2.566-2.93 4.518-6.348 5.843-10.264 1.325-3.92 1.99-8.088 1.99-12.52 0-4.35-.665-8.502-1.99-12.455-1.325-3.955-3.276-7.394-5.843-10.325-2.573-2.923-5.743-5.26-9.518-7-3.77-1.744-8.103-2.608-13-2.608zm0 6.65c3.73 0 7.01.74 9.826 2.224 2.82 1.484 5.16 3.434 7.03 5.853 1.863 2.417 3.276 5.17 4.23 8.244a31.84 31.84 0 0 1 1.433 9.42 31.86 31.86 0 0 1-1.434 9.422c-.954 3.073-2.365 5.827-4.23 8.244-1.868 2.42-4.21 4.37-7.03 5.853-2.812 1.475-6.094 2.217-9.825 2.217-3.73 0-7.007-.74-9.82-2.217-2.822-1.48-5.163-3.434-7.037-5.853-1.855-2.417-3.27-5.17-4.22-8.245a31.754 31.754 0 0 1-1.428-9.424c0-3.2.474-6.335 1.427-9.42.95-3.073 2.365-5.827 4.22-8.243 1.875-2.42 4.216-4.37 7.037-5.852 2.814-1.484 6.09-2.224 9.82-2.224zm41.318-2.322c0 3.515-2.665 6.25-6.128 6.25s-6.13-2.735-6.13-6.25c0-3.506 2.667-6.25 6.13-6.25s6.128 2.744 6.128 6.25zm-11.3 0c0 2.99 2.2 5.363 5.172 5.363 2.968 0 5.178-2.37 5.178-5.363 0-2.986-2.21-5.356-5.178-5.356-2.97 0-5.172 2.37-5.172 5.355zm3.825 3.615h-.877v-7.226h2.714c1.6 0 2.312.704 2.312 2 0 1.282-.825 1.85-1.777 2.016l2.104 3.21h-1.017l-2-3.21h-1.46v3.21zm1.148-3.962c1.076 0 2.128-.035 2.128-1.264 0-1.007-.827-1.244-1.68-1.244h-1.596v2.508h1.148z"></path><path fill="#FFF" d="M45.966 76.098L24.94 54.635l-.762-.782c-12.05-12.33-31.69-12.33-43.683-.048-12.09 12.273-12.09 32.232 0 44.52 11.993 12.32 31.58 12.32 43.625 0l21.846-22.227z"></path><path fill="#FFF" d="M45.966 76.07v30.315l.043 1.114c0 17.38-13.846 31.556-30.913 31.556-17.068 0-30.91-14.086-30.91-31.47 0-17.4 13.894-31.518 30.91-31.518h30.87z"></path><path fill="#FFF" d="M45.966 76.07v30.315l.043 1.114c0 17.38-13.846 31.556-30.913 31.556-17.068 0-30.91-14.086-30.91-31.47 0-17.4 13.894-31.518 30.91-31.518h30.87z"></path><path fill="#FFF" d="M45.966 76.07v30.315l.043 1.114c0 17.38-13.846 31.556-30.913 31.556-17.068 0-30.91-14.086-30.91-31.47 0-1.937.204-3.813.52-5.62 12.046 8.55 28.704 7.34 39.413-3.634l21.846-22.235v-.028z"></path><path fill="#8BC037" d="M15.098 80.042c-14.87 0-26.96 12.33-26.96 27.546 0 15.158 12.09 27.46 26.96 27.46 14.92 0 26.967-12.302 26.967-27.46V80.042H15.097z"></path><path fill="#FFF" d="M45.966 76.07l21.01 21.424.864.78c12.002 12.315 12.058 32.305 0 44.583-12.09 12.29-31.624 12.29-43.72 0-12.046-12.278-12.046-32.246 0-44.555L45.967 76.07z"></path><path fill="#8BC037" d="M26.94 101.13c-10.554 10.736-10.554 28.183 0 38.888 10.503 10.74 27.585 10.74 38.138 0 10.507-10.707 10.507-28.15 0-38.888l-.878-.806-18.234-18.618-19.026 19.388v.036z"></path><path fill="#FFF" d="M45.966 76.07h29.77l1.083-.055c17.07 0 30.915 14.11 30.915 31.514 0 17.41-13.796 31.465-30.864 31.465-17.067 0-30.902-14.08-30.902-31.466V76.07z"></path><path fill="#8BC037" d="M49.906 107.53c0 15.193 12.04 27.5 26.964 27.5 14.856 0 26.9-12.307 26.9-27.5 0-15.214-12.044-27.488-26.9-27.488H49.906v27.488z"></path><path fill="#FFF" d="M45.966 76.07l21.008-21.457.814-.808c12.052-12.282 31.627-12.333 43.676-.056 12.052 12.314 12.052 32.243 0 44.552a30.445 30.445 0 0 1-43.676 0L45.966 76.07z"></path><path fill="#8BC037" d="M70.606 95.456c10.46 10.77 27.532 10.77 38.09 0 10.56-10.72 10.56-28.115 0-38.862-10.558-10.735-27.63-10.735-38.09 0l-.865.84-18.2 18.635 18.97 19.363.096.023z"></path><path fill="#FFF" d="M45.966 76.07V44.6c0-17.37 13.78-31.512 30.903-31.512 17.02 0 30.808 14.05 30.808 31.46 0 17.405-13.786 31.52-30.81 31.52h-30.9z"></path><path fill="#F99F38" d="M76.87 72.068c14.855 0 26.9-12.31 26.9-27.517 0-15.148-12.044-27.487-26.9-27.487-14.923 0-27.02 12.34-27.02 27.488l.055 1.18v26.337H76.87z"></path><path fill="#FFF" d="M45.966 76.07L24.94 54.613l-.82-.76c-12.046-12.33-12.046-32.303 0-44.582 11.996-12.304 31.583-12.304 43.67 0 12.052 12.28 12.052 32.252 0 44.534L45.966 76.07z"></path><path fill="#0081C6" d="M65.022 51.243c10.503-10.74 10.503-28.17 0-38.895-10.548-10.73-27.58-10.73-38.13 0-10.562 10.725-10.562 28.155 0 38.895l.768.824 18.307 18.586 19-19.362.055-.047z"></path><path fill="#FFF" d="M45.966 76.325H16.222l-1.124.03c-17.016 0-30.91-14.116-30.91-31.51 0-17.383 13.842-31.496 30.858-31.496 17.07 0 30.92 14.112 30.92 31.505v31.47z"></path><path fill="#0081C6" d="M42.06 44.855c0-15.194-12.045-27.49-27.014-27.49-14.862 0-26.955 12.296-26.955 27.47 0 15.18 12.094 27.52 26.956 27.52l1.176-.03H42.06v-27.47z"></path><path fill="#FFF" d="M45.966 76.325l-74.545.03c0-8.05 2.97-16.12 9.075-22.292 11.992-12.28 31.58-12.28 43.625 0l21.846 22.262z"></path><path fill="#0081C6" d="M21.352 56.888l19.07 19.437H15.098c-13.686 0-25.325 9.097-29.367 21.737-.823-.73-1.697-1.47-2.46-2.3-10.56-10.737-10.56-28.108 0-38.874 10.452-10.724 27.578-10.724 38.082 0"></path><path fill="#005EA5" d="M21.4 56.912l15.09 15.396-21.464.066c-12.354 0-22.772-8.463-25.933-20.02C-.66 46.5 12.76 47.907 21.35 56.89l.05.022zM42.07 44.91l-.023 21.778-15.15-15.45c-8.725-8.914-10.26-22.4-4.518-32.853 11.326 3.235 19.688 13.85 19.688 26.466v.06h.002zm7.72 21.826V44.89c0-12.588 8.348-23.22 19.69-26.483 5.735 10.48 4.655 23.62-4.347 32.703L49.79 66.736z"></path><path fill="#FFDF4F" d="M55.42 72.08l15.135-15.474a26.582 26.582 0 0 1 32.217-4.565C99.534 63.59 89.655 71.89 77.496 72.09l-22.077-.01z"></path><path fill="#48A64A" d="M55.418 80.025h21.424c12.354 0 22.763 8.414 25.945 19.99-10.31 5.876-23.544 4.337-32.302-4.567L55.418 80.025zm-5.514 27.359v-21.74l15.174 15.425c8.725 8.93 10.2 22.48 4.466 32.933-11.33-3.25-19.64-13.908-19.64-26.513v-.106zm-22.929-6.306l15.08-15.382.035 21.854c0 12.597-8.297 23.184-19.628 26.45-5.74-10.474-4.202-23.99 4.513-32.88v-.042zM15.25 80.032h21.327L21.454 95.48c-8.706 8.895-22.05 10.432-32.292 4.58 3.22-11.583 13.64-20.027 25.995-20.027h.094z"></path></svg>