<svg xmlns="http://www.w3.org/2000/svg" width="450" height="143.1"><path d="M444 17.57a23.76 23.76 0 0 0 .54 5 22.1 22.1 0 0 0-33 22.7h-.69a16.27 16.27 0 0 0-16.3 16.23c0 .31 0 .61.05.91a19.45 19.45 0 0 0-24.82 13.85h-.5a14 14 0 0 0-12.16 7.12 24.66 24.66 0 0 0-40.66 18.72v.63a21.12 21.12 0 0 0-29.28 12.16A15.64 15.64 0 0 0 261.67 127v.36a14.08 14.08 0 0 0-19.05 4.64 14.1 14.1 0 0 0-26.48 3.43 14.92 14.92 0 0 0-23.73-2.87v-.82A18.3 18.3 0 0 0 160.16 120a17 17 0 0 0-25.49-7.59 24 24 0 0 0-41.34-14 18 18 0 0 0-16.18-10.13 17.87 17.87 0 0 0-4.53.6v-.11A20.09 20.09 0 0 0 52.51 68.7a20.33 20.33 0 0 0-5.49.77A22.85 22.85 0 0 0 48 63a23.23 23.23 0 0 0-32.45-21.31 13.59 13.59 0 0 0 .15-1.93 13.66 13.66 0 0 0-9.86-13.1 23 23 0 0 0 1.72-8.76A23.11 23.11 0 0 0-1.5-.46V210h453V.19a23.76 23.76 0 0 0-7.5 17.38z" fill="#22be73" opacity=".1"/><path d="M450.43 37.59a18.82 18.82 0 0 0-15.8 29.14 17 17 0 0 0-21.48 12.73A29.14 29.14 0 0 0 367.43 100a13.35 13.35 0 0 0-18.66 12.22 13 13 0 0 0 .08 1.4 24.37 24.37 0 0 0-34 19.68 30 30 0 0 0-50.16 15.7 14.13 14.13 0 0 0-23.16 5.71 17.3 17.3 0 0 0-27.56.85 16.46 16.46 0 0 0-25.28-7.43 29.12 29.12 0 0 0-51.89-9.8 19.12 19.12 0 0 0-29.62-7.06 13.51 13.51 0 0 0-15.15-5 18.53 18.53 0 0 0-25.4-14.59 32.06 32.06 0 0 0 .42-5.12A31.64 31.64 0 0 0 24 77.18 18.61 18.61 0 0 0 5.39 59.36a19.31 19.31 0 0 0-2.39.17 20 20 0 0 0 1.68-8A19.86 19.86 0 0 0-1.5 37.15V210h453V37.62c-.35-.02-.71-.03-1.07-.03z" fill="#22be73" opacity=".5"/><path d="M440.23 101.76a25.66 25.66 0 0 0 2.38 10.8A30 30 0 0 0 397 138.09v1.2a42.32 42.32 0 0 0-77.91 20.92 33.52 33.52 0 0 0-62.64 16.5v.58a16.14 16.14 0 0 0-24.22 9.27 17 17 0 0 0-25.56-5.94 17.23 17.23 0 0 0 .73-5 17.44 17.44 0 0 0-32.93-8 35.31 35.31 0 0 0-63.61-3.4A31.46 31.46 0 0 0 54.51 152a16.45 16.45 0 0 0-24.82-12.59 28.84 28.84 0 0 0 3.1-13A29.15 29.15 0 0 0 5 97.23a20.61 20.61 0 0 0 .69-5.18A20.27 20.27 0 0 0-1.5 76.54V210h453V80.46a25.76 25.76 0 0 0-11.27 21.3z" fill="#22be73"/></svg>