<svg xmlns="http://www.w3.org/2000/svg" width="450" height="143.1" viewBox="0 0 450 143.1"><path d="M442.51 18a24.14 24.14 0 0 0 .53 5 22 22 0 0 0-32.75 22.6h-.69a16.17 16.17 0 0 0-16.17 16.17v.91a19.28 19.28 0 0 0-24.65 13.78h-.49a13.83 13.83 0 0 0-12.08 7.09 24.48 24.48 0 0 0-40.39 18.63v.63a20.83 20.83 0 0 0-9.18-2.14 21 21 0 0 0-19.9 14.25 15.53 15.53 0 0 0-25.37 12v.36a14 14 0 0 0-18.94 4.66 14 14 0 0 0-26.3 3.41 14.81 14.81 0 0 0-23.58-2.85v-.82a18.18 18.18 0 0 0-32.08-11.71 16.85 16.85 0 0 0-25.32-7.55 23.82 23.82 0 0 0-41.07-14 17.9 17.9 0 0 0-16.07-10 17.63 17.63 0 0 0-4.5.6v-.11a20 20 0 0 0-20-20 19.67 19.67 0 0 0-5.45.78 23.07 23.07 0 0 0-31.13-27.69 13.47 13.47 0 0 0-9.64-15 23 23 0 0 0 1.71-8.72 23 23 0 0 0-9-18.28v209.53h450v-208.88a23.67 23.67 0 0 0-7.49 17.35z" fill="#22be73" opacity=".1"/><path d="M448.94 37.88a18.75 18.75 0 0 0-15.7 29 16.89 16.89 0 0 0-21.33 12.67 28.94 28.94 0 0 0-45.42 20.45 13.27 13.27 0 0 0-18.49 12.14 13 13 0 0 0 .08 1.4 24.19 24.19 0 0 0-33.73 19.6 29.79 29.79 0 0 0-49.87 15.7 14 14 0 0 0-23 5.69 17.15 17.15 0 0 0-27.37.85 16.33 16.33 0 0 0-25.12-7.4 28.9 28.9 0 0 0-51.54-9.76 19 19 0 0 0-29.43-7 13.44 13.44 0 0 0-11.02-5.64 13.13 13.13 0 0 0-4.13.66 18.42 18.42 0 0 0-18.24-15.92 18.24 18.24 0 0 0-7 1.39 31.46 31.46 0 0 0-31-36.52 31.29 31.29 0 0 0-11.29 2.11 18.52 18.52 0 0 0-18.5-17.74 19.12 19.12 0 0 0-2.41.17 19.78 19.78 0 0 0 1.67-8 19.81 19.81 0 0 0-6.1-14.28v172.08h450v-171.62c-.35-.02-.71-.03-1.06-.03z" fill="#22be73" opacity=".5"/><path d="M438.81 101.77a25.65 25.65 0 0 0 2.36 10.76 29.77 29.77 0 0 0-45.3 25.41v1.19a42 42 0 0 0-77.37 20.87 33.27 33.27 0 0 0-62.21 16.43v.58a16 16 0 0 0-24.06 9.23 16.89 16.89 0 0 0-25.39-5.92 17.31 17.31 0 0 0-32-12.86 35 35 0 0 0-63.16-3.46 31.23 31.23 0 0 0-56-12.28 16.31 16.31 0 0 0-24.68-12.51 28.9 28.9 0 0 0 3.07-13 29 29 0 0 0-27.58-29 19.93 19.93 0 0 0 .69-5.15 20.17 20.17 0 0 0-7.18-15.39v132.86h450v-129a25.65 25.65 0 0 0-11.19 21.24z" fill="#22be73"/></svg>