<svg xmlns="http://www.w3.org/2000/svg" width="370" height="142"><path d="M.61 115.23H84V.61H.61z" fill="#fff"/><path d="M84.25 115.52H.32V.32h83.93zM.89 115h82.79V.89H.89z" fill="#c8c8ca"/><path fill="#fff" d="M64.37 34.73v5.15H20.2v-5.15"/><path fill="#c8c8ca" d="M64.65 40.16H19.92v-5.43h.57v4.86h43.59v-4.86h.57v5.43z"/><path fill="#fff" d="M65.03 40.54H19.54v-5.81h1.33v4.49H63.7v-4.49h1.33v5.81z"/><path d="M65.32 40.83H19.25v-6.39h1.9v4.49h42.27v-4.49h1.9zm-45.5-.57h44.93V35H64v4.5H20.58V35h-.76z" fill="#c8c8ca"/><path fill="#fff" d="M64.37 48.47v5.15H20.2v-5.15"/><path fill="#fff" d="M65.03 54.29H19.54v-5.82h1.33v4.49H63.7v-4.49h1.33v5.82zM64.37 62.22v5.15H20.2v-5.15"/><path fill="#fff" d="M65.03 68.03H19.54v-5.81h1.33v4.48H63.7v-4.48h1.33v5.81zM64.37 75.96v5.15H20.2v-5.15"/><path fill="#fff" d="M65.03 81.78H19.54v-5.82h1.33v4.49H63.7v-4.49h1.33v5.82z"/><path d="M13.61 128.23H97V13.61H13.61z" fill="#fff"/><path d="M97.25 128.52H13.32V13.32h83.93zM13.89 128h82.79V13.89H13.89z" fill="#c8c8ca"/><path fill="#fff" d="M77.37 47.73v5.15H33.2v-5.15"/><path fill="#fff" d="M78.03 53.55H32.54v-5.82h1.33v4.49H76.7v-4.49h1.33v5.82zM77.37 61.47v5.16H33.2v-5.16"/><path fill="#fff" d="M78.03 67.29H32.54v-5.82h1.33v4.49H76.7v-4.49h1.33v5.82zM77.37 75.22v5.15H33.2v-5.15"/><path fill="#fff" d="M78.03 81.03H32.54v-5.81h1.33v4.48H76.7v-4.48h1.33v5.81zM77.37 88.96v5.15H33.2v-5.15"/><path fill="#fff" d="M78.03 94.78H32.54v-5.82h1.33v4.49H76.7v-4.49h1.33v5.82z"/><path d="M26.61 141.23H110V26.61H26.61z" fill="#fff"/><path d="M110.25 141.52H26.32V26.32h83.93zM26.89 141h82.79V26.89H26.89z" fill="#c8c8ca"/><path d="M89.12 71.21l-16 14L89 96.86a1.86 1.86 0 0 0 .16-.74V71.73a1.72 1.72 0 0 0-.04-.52zM87.47 69.77a2.33 2.33 0 0 0-.59-.08H49.69a2.33 2.33 0 0 0-.59.08l19.19 16.78zM47.46 71.21a1.72 1.72 0 0 0-.09.52v24.39a1.71 1.71 0 0 0 .17.74l15.88-11.7zM69.11 88.7a1.28 1.28 0 0 1-1.65 0l-2.4-2.09-15.64 11.52H87.15L71.51 86.61z" fill="#37b672"/><g><path d="M298.24 133.39c-1-1.94-2.84-21-2.84-21l-37.61-.3s-1.5 19.37-2.47 21.31-8.29 5.49-8 6.13c0 0 1.17 1.77 4.75 1.77h48.42s3.22.1 4.67-1.76a.51.51 0 0 0 .18-.18c.37-.65-6.13-4.03-7.1-5.97z" fill="#fff"/><path d="M300.62 141.57h-48.51c-3.68 0-4.93-1.81-5-1.89-.26-.52.51-1 3-2.58 2-1.26 4.49-2.83 5-3.83.75-1.5 1.93-14.53 2.45-21.21v-.26l38.11.31v.25c.64 6.57 2.06 19.41 2.81 20.91.5 1 2.69 2.49 4.45 3.69 2.19 1.49 2.93 2 2.69 2.52a.67.67 0 0 1-.23.25c-1.39 1.75-4.19 1.84-4.77 1.84zm-53-2.11c.25.29 1.49 1.55 4.45 1.55h48.42s3.11.07 4.45-1.66l.07-.06a17.78 17.78 0 0 0-2.46-1.85c-1.91-1.3-4.08-2.78-4.64-3.91-.93-1.86-2.61-18.5-2.84-20.85l-37.1-.3c-.19 2.41-1.55 19.29-2.48 21.16-.57 1.14-3 2.69-5.2 4.06a18.23 18.23 0 0 0-2.63 1.86z" fill="#e3e3e3"/><path d="M300.63 141.38h-48.52c-3.58 0-4.78-1.73-4.82-1.81-.17-.33.66-.89 2.89-2.3 2-1.28 4.54-2.86 5.06-3.92 1-1.9 2.45-21.08 2.47-21.28V112h.08l37.68.3v.08c0 .19 1.87 19.07 2.82 21 .53 1.05 2.74 2.56 4.52 3.77s2.8 1.93 2.63 2.27a.54.54 0 0 1-.2.2c-1.31 1.67-4.04 1.76-4.61 1.76zm-42.76-29.21c-.12 1.53-1.53 19.37-2.47 21.26-.55 1.1-3.09 2.7-5.13 4-1.24.79-3 1.86-2.84 2.08 0 0 1.2 1.72 4.68 1.72h48.42s3.2.07 4.61-1.74a.52.52 0 0 0 .15-.14c.11-.23-1.38-1.24-2.57-2.06-1.8-1.22-4-2.75-4.58-3.83-.94-1.89-2.69-19.46-2.84-21z" fill="#fff"/><path d="M300.63 141.66h-48.52c-3.74 0-5-1.86-5.06-1.93-.3-.6.43-1.09 3-2.7 1.89-1.19 4.47-2.82 5-3.8.82-1.63 2.13-17.12 2.44-21.18v-.34h.34l37.93.3v.33c.48 4.92 2 19.31 2.8 20.88.49 1 2.77 2.53 4.43 3.66 2.28 1.56 3 2.08 2.72 2.63a.78.78 0 0 1-.25.27c-1.46 1.79-4.27 1.88-4.83 1.88zm-52.87-2.2c.31.34 1.55 1.47 4.35 1.47h48.42s3.07.06 4.39-1.63l.05-.05a23.37 23.37 0 0 0-2.39-1.76c-1.83-1.24-4.09-2.79-4.67-3.94-.91-1.82-2.47-17.11-2.84-20.81l-36.94-.29c-.23 2.91-1.55 19.24-2.48 21.1-.59 1.17-3.05 2.72-5.23 4.1a26.15 26.15 0 0 0-2.66 1.81z" fill="#e3e3e3"/></g><g><path d="M364.81.9H187.36a4.24 4.24 0 0 0-4.25 4.24V108.9a4.24 4.24 0 0 0 4.25 4.24h177.45a4.24 4.24 0 0 0 4.24-4.24V5.14A4.24 4.24 0 0 0 364.81.9z" fill="#fff"/><path d="M364.81 113.42H187.36a4.53 4.53 0 0 1-4.53-4.53V5.14a4.53 4.53 0 0 1 4.53-4.52h177.45a4.53 4.53 0 0 1 4.52 4.52v103.75a4.53 4.53 0 0 1-4.52 4.53zM187.36 1.18a4 4 0 0 0-4 4v103.71a4 4 0 0 0 4 4h177.45a4 4 0 0 0 4-4V5.14a4 4 0 0 0-4-4z" fill="#e3e3e3"/><path d="M364.81 113.23H187.36a4.34 4.34 0 0 1-4.36-4.33V5.14a4.34 4.34 0 0 1 4.36-4.33h177.45a4.34 4.34 0 0 1 4.33 4.33V108.9a4.34 4.34 0 0 1-4.33 4.33zM187.36 1a4.17 4.17 0 0 0-4.16 4.16V108.9a4.17 4.17 0 0 0 4.16 4.16h177.45a4.17 4.17 0 0 0 4.19-4.16V5.14A4.17 4.17 0 0 0 364.81 1z" fill="#fff"/><path d="M364.81 113.5H187.36a4.61 4.61 0 0 1-4.61-4.61V5.14a4.62 4.62 0 0 1 4.61-4.61h177.45a4.61 4.61 0 0 1 4.6 4.61v103.75a4.6 4.6 0 0 1-4.6 4.61zM187.36 1.26a3.88 3.88 0 0 0-3.88 3.88v103.75a3.89 3.89 0 0 0 3.88 3.89h177.45a3.89 3.89 0 0 0 3.88-3.89V5.14a3.88 3.88 0 0 0-3.88-3.88z" fill="#e3e3e3"/></g><path fill="#fff" d="M189.52 7.63h173.33v98.91H189.52z"/><path d="M363.13 106.82H189.24V7.35h173.89zm-173.34-.55h172.78V7.91H189.79z" fill="#e3e3e3"/><path d="M362.93 106.63h-173.5V7.55h173.5zm-173.33-.17h173.16V7.72H189.6z" fill="#fff"/><path d="M363.21 106.91H189.15V7.27h174.06zm-173.33-.73h172.6V8h-172.6z" fill="#e3e3e3"/><path d="M274.6 55.06c.5.49.9.9.9.9l.68.67a1.16 1.16 0 0 1-.22 1.58L265.77 68.4a1.27 1.27 0 0 0 0 1.8l9 9a1.29 1.29 0 0 0 1.8 0l21.28-21.16a1.27 1.27 0 0 0 0-1.8L276.58 35a1.3 1.3 0 0 0-1.81 0l-9.23 9.24a1.29 1.29 0 0 0 0 1.8z" fill="#24aa60"/><rect x="255.72" y="49.88" width="14.34" height="14.61" rx="1.27" ry="1.27" transform="rotate(-45 262.888 57.188)" fill="#8bc34a"/></svg>