<svg xmlns="http://www.w3.org/2000/svg" width="75" height="75" viewBox="0 0 75 75"><title>Bug tracker icon</title><circle cx="37.5" cy="37.45" r="37.45" class="fill-current"/><path d="M60 31.72a2.44 2.44 0 0 0-3.23-1.25l-5.29 2.36h-28.01l-5.29-2.36a2.45 2.45 0 0 0-3.18 1.25 2.44 2.44 0 0 0 1.19 3.28l6 2.66v.92a22 22 0 0 0 .31 3.75l-4.76.52a2.46 2.46 0 0 0-2.17 2.7 2.45 2.45 0 0 0 2.7 2.17l5.63-.61a18.9 18.9 0 0 0 2.22 3.89l-4.44 2.7a2.45 2.45 0 1 0 2.56 4.18l5.47-3.36a13.12 13.12 0 0 0 15.57 0l5.47 3.36a2.46 2.46 0 0 0 3.37-.81 2.44 2.44 0 0 0-.81-3.37l-4.43-2.7a19.32 19.32 0 0 0 2.25-3.92l5.63.61a2.45 2.45 0 0 0 2.7-2.17 2.45 2.45 0 0 0-2.17-2.7l-4.76-.52a22 22 0 0 0 .31-3.75v-.92l6-2.66a2.44 2.44 0 0 0 1.16-3.25zM28.45 23.54a18.16 18.16 0 0 0-4.69 6.72h27.48a18.3 18.3 0 0 0-4.7-6.72l5.05-5a1.07 1.07 0 0 0-1.52-1.54l-5.25 5.24a13.1 13.1 0 0 0-14.65 0l-5.26-5.24a1.06 1.06 0 0 0-1.49 0 1.06 1.06 0 0 0 0 1.49z" fill="#fff"/></svg>