<svg id="Layer_1" data-name="Layer 1" xmlns="http://www.w3.org/2000/svg" width="75" height="75" viewBox="0 0 75 75"><title>Bug tracker icon</title><circle cx="37.5" cy="37.45" r="37.45" fill="#737174"/><path d="M60,31.72h0a2.44,2.44,0,0,0-3.23-1.25l-5.29,2.36H23.47l-5.29-2.36A2.45,2.45,0,0,0,15,31.72h0A2.44,2.44,0,0,0,16.19,35l6,2.66c0,.31,0,.61,0,.92a22,22,0,0,0,.31,3.75l-4.76.52a2.46,2.46,0,0,0-2.17,2.7h0a2.45,2.45,0,0,0,2.7,2.17l5.63-.61A18.9,18.9,0,0,0,26.12,51L21.68,53.7a2.45,2.45,0,1,0,2.56,4.18l5.47-3.36a13.12,13.12,0,0,0,15.57,0l5.47,3.36a2.46,2.46,0,0,0,3.37-.81h0a2.44,2.44,0,0,0-.81-3.37L48.88,51a19.32,19.32,0,0,0,2.25-3.92l5.63.61a2.45,2.45,0,0,0,2.7-2.17h0a2.45,2.45,0,0,0-2.17-2.7l-4.76-.52a22,22,0,0,0,.31-3.75c0-.31,0-.61,0-.92l6-2.66A2.44,2.44,0,0,0,60,31.72Z" fill="#fff"/><path d="M28.45,23.54a18.16,18.16,0,0,0-4.69,6.72H51.24a18.3,18.3,0,0,0-4.7-6.72l5.05-5A1.07,1.07,0,0,0,50.07,17l-5.25,5.24a13.1,13.1,0,0,0-14.65,0L24.91,17a1.06,1.06,0,0,0-1.49,0l0,0a1.06,1.06,0,0,0,0,1.49Z" fill="#fff"/></svg>