<svg xmlns="http://www.w3.org/2000/svg" width="140" height="120"><path fill="#fff" d="M56.868 45.878l3.641-3.642 2.829 2.829-3.642 3.642zm7.282-7.292l3.642-3.642 2.829 2.828-3.642 3.642zm7.571-7.226l3.642-3.641 2.828 2.828-3.641 3.642zm7.273-7.292l3.642-3.642 2.828 2.829-3.642 3.641zm7.297-7.283l3.642-3.641 2.828 2.828-3.641 3.642zM56.869 78.973l2.828-2.829 3.642 3.642-2.829 2.828zm7.282 7.273l2.829-2.829 3.641 3.642-2.828 2.828zm7.235 7.57l2.829-2.828 3.641 3.641-2.828 2.829zm7.29 7.29l2.828-2.828 3.642 3.641-2.828 2.829zm7.276 7.28l2.828-2.828 3.642 3.641-2.829 2.829zM66.19 59.92h5.15v4h-5.15zm10.3 0h5.15v4h-5.15zm10.3 0h5.15v4h-5.15zM58.32 71.91V52.26a2.75 2.75 0 0 0-2.74-2.74H24.75A2.76 2.76 0 0 0 22 52.26v19.65a2.76 2.76 0 0 0 2.74 2.74h30.84a2.75 2.75 0 0 0 2.74-2.74zM33.55 44.68a1.37 1.37 0 0 1 1.37-1.37h10.49a1.37 1.37 0 0 1 1.37 1.37v3.49h2.74v-3.49a4.11 4.11 0 0 0-4.11-4.11H34.92a4.12 4.12 0 0 0-4.11 4.11v3.49h2.74z"/><rect x="94.96" y="97.59" width="22.41" height="22.41" rx="6.59" ry="6.59" fill="#fff"/><rect x="94.96" y="50.52" width="22.41" height="22.41" rx="6.59" ry="6.59" fill="#fff"/><rect x="94.96" y="5.18" width="22.41" height="22.41" rx="6.59" ry="6.59" fill="#fff"/></svg>