<svg id="Layer_1" data-name="Layer 1" xmlns="http://www.w3.org/2000/svg" width="75" height="75" viewBox="0 0 75 75"><title>Chat icon</title><circle cx="37.5" cy="37.5" r="37.5" fill="#797476"/><path d="M56.68,51.86a.73.73,0,0,1,.33-.71C60.17,49,62.15,46,62.15,42.6c0-4.14-3-7.77-7.45-9.85a15.78,15.78,0,0,1-6.79,10.54A26.55,26.55,0,0,1,32.4,48h-.61c2.68,3.74,8.06,6.29,14.27,6.29a21.87,21.87,0,0,0,3.66-.3.74.74,0,0,1,.62.17,20.32,20.32,0,0,0,9.3,4.11A.38.38,0,0,0,60,57.6,9.48,9.48,0,0,1,56.68,51.86Z" fill="#fff"/><path d="M51.94,30.93c0-7.84-8.75-14.19-19.54-14.19S12.85,23.09,12.85,30.93c0,4.73,3.2,8.92,8.1,11.49a.78.78,0,0,1,.39.5,6.17,6.17,0,0,1,.15.84A8.92,8.92,0,0,1,18.54,51a.38.38,0,0,0,.36.63c4.91-1.27,8.74-3.59,10.38-6.24A.77.77,0,0,1,30,45c.8.07,1.6.11,2.42.11C43.19,45.11,51.94,38.76,51.94,30.93ZM22.73,33a2.1,2.1,0,1,1,2.09-2.09A2.1,2.1,0,0,1,22.73,33Zm19.34-4.19A2.1,2.1,0,1,1,40,30.93,2.09,2.09,0,0,1,42.07,28.83ZM30.3,30.93A2.1,2.1,0,1,1,32.4,33,2.1,2.1,0,0,1,30.3,30.93Z" fill="#fff"/></svg>