<svg xmlns="http://www.w3.org/2000/svg" width="140" height="120"><path d="M97.74 40.8a20.27 20.27 0 0 0 .2-2.77c0-11.53-9-20.92-20.18-20.92a20.26 20.26 0 0 0-18.91 13.66 10.52 10.52 0 0 0-6-1.86 11.12 11.12 0 0 0-10.78 9.51 16.44 16.44 0 0 0-11.51 15.84c0 9.09 7.14 16.49 15.91 16.49h49.78c8 0 14.49-6.74 14.49-15a14.91 14.91 0 0 0-13-14.95zM68.45 73.27h4.4v5.52h-4.4zM68.45 81.87h4.4v5.52h-4.4zM126.69 89.81h4.4v5.52h-4.4zM68.45 90.47h4.4v5.52h-4.4zM9.02 89.98h4.4v5.52h-4.4zM48.29 82.53h5.52v4.4h-5.52zM58.26 82.53h5.52v4.4h-5.52zM77.14 82.53h5.52v4.4h-5.52zM87.02 82.53h5.52v4.4h-5.52zM96.99 82.53h5.52v4.4h-5.52zM106.96 82.53h5.52v4.4h-5.52zM116.93 82.53h5.52v4.4h-5.52zM17.78 82.53h5.52v4.4h-5.52zM27.76 82.53h5.52v4.4h-5.52zM37.73 82.53h5.52v4.4h-5.52zM131.09 84.57a2.25 2.25 0 0 0-2.32-2.17h-2.24v4.41h4.56zM13.39 82.57h-2.24a2.26 2.26 0 0 0-2.32 2.17V87h4.56z" fill="#fff"/><rect x="117.78" y="97.78" width="22.22" height="22.22" rx="6.64" ry="6.64" fill="#fff"/><rect x="59.54" y="97.78" width="22.22" height="22.22" rx="6.64" ry="6.64" fill="#fff"/><rect y="97.78" width="22.22" height="22.22" rx="6.64" ry="6.64" fill="#fff"/></svg>