<svg xmlns="http://www.w3.org/2000/svg" width="140" height="120"><path d="M97.74 40.8a20.27 20.27 0 0 0 .2-2.77c0-11.53-9-20.92-20.18-20.92a20.26 20.26 0 0 0-18.91 13.66 10.52 10.52 0 0 0-6-1.86 11.12 11.12 0 0 0-10.78 9.51 16.44 16.44 0 0 0-11.51 15.84c0 9.09 7.14 16.49 15.91 16.49h49.78c8 0 14.49-6.74 14.49-15a14.91 14.91 0 0 0-13-14.95zM68.45 73.27h4.4v5.52h-4.4zm0 8.6h4.4v5.52h-4.4zm58.24 7.94h4.4v5.52h-4.4zm-58.24.66h4.4v5.52h-4.4zm-59.43-.49h4.4v5.52h-4.4zm39.27-7.45h5.52v4.4h-5.52zm9.97 0h5.52v4.4h-5.52zm18.88 0h5.52v4.4h-5.52zm9.88 0h5.52v4.4h-5.52zm9.97 0h5.52v4.4h-5.52zm9.97 0h5.52v4.4h-5.52zm9.97 0h5.52v4.4h-5.52zm-99.15 0h5.52v4.4h-5.52zm9.98 0h5.52v4.4h-5.52zm9.97 0h5.52v4.4h-5.52zm93.36 2.04a2.25 2.25 0 0 0-2.32-2.17h-2.24v4.41h4.56zm-117.7-2h-2.24a2.26 2.26 0 0 0-2.32 2.17V87h4.56z" fill="#fff"/><rect x="117.78" y="97.78" width="22.22" height="22.22" rx="6.64" ry="6.64" fill="#fff"/><rect x="59.54" y="97.78" width="22.22" height="22.22" rx="6.64" ry="6.64" fill="#fff"/><rect y="97.78" width="22.22" height="22.22" rx="6.64" ry="6.64" fill="#fff"/></svg>