<svg xmlns="http://www.w3.org/2000/svg" width="75" height="75" viewBox="0 0 75 75"><title>Contribute icon</title><circle cx="37.5" cy="37.5" r="37.5" fill="#797476"/><path d="M31 60.26h17.36v-.08l.07-6.26a8.85 8.85 0 0 1 1.23-1.18 7.17 7.17 0 0 0 1.24-1.21c2.15-3.18 2-7.16 2-10.66v-5.23a5.12 5.12 0 0 0-.18-1.27 3.09 3.09 0 0 0-.57-1.28 2.73 2.73 0 0 0-2.32-1.24h-.18a3 3 0 0 0-2.65 1.2 6.68 6.68 0 0 0 0-1.05 2.91 2.91 0 0 0-.73-2 3.12 3.12 0 0 0-5.12 0v-.63a4 4 0 0 0-.15-1 3.12 3.12 0 0 0-5.64-1.18v-10.66a3.13 3.13 0 1 0-6.25 0v17a17.25 17.25 0 0 1-.37 4.47v-.07a61.83 61.83 0 0 0-4.12-5.21 3.42 3.42 0 0 0-2.76-1.24 3 3 0 0 0-2.28 1 2 2 0 0 0-.45.56 2.72 2.72 0 0 0-.3 1.36v.07a3.15 3.15 0 0 0 .12.87 14.72 14.72 0 0 0 1.53 3.56l.08.16a69.81 69.81 0 0 0 9.44 13.94c.95 1 1 5.27 1 6.69v.57z" fill="#fff"/></svg>