<svg id="Layer_1" data-name="Layer 1" xmlns="http://www.w3.org/2000/svg" width="75" height="75" viewBox="0 0 75 75"><title>Contribute icon</title><circle cx="37.5" cy="37.5" r="37.5" fill="#797476"/><path d="M31,60.26H48.36v-.08l.07-6.26a8.85,8.85,0,0,1,1.23-1.18,7.17,7.17,0,0,0,1.24-1.21c2.15-3.18,2-7.16,2-10.66,0-.35,0-.7,0-1V35.64a5.12,5.12,0,0,0-.18-1.27,3.09,3.09,0,0,0-.57-1.28,2.73,2.73,0,0,0-2.32-1.24h-.18A3,3,0,0,0,47,33.05,6.68,6.68,0,0,0,47,32,2.91,2.91,0,0,0,46.27,30a3.12,3.12,0,0,0-5.12,0v-.63A4,4,0,0,0,41,28.37a3.12,3.12,0,0,0-5.64-1.18c0-4,0-10.25,0-10.66a3.13,3.13,0,1,0-6.25,0c0,.27,0,17,0,17A17.25,17.25,0,0,1,28.74,38l0-.07a61.83,61.83,0,0,0-4.12-5.21,3.42,3.42,0,0,0-2.76-1.24,3,3,0,0,0-2.28,1,2,2,0,0,0-.45.56,2.72,2.72,0,0,0-.3,1.36v.07a3.15,3.15,0,0,0,.12.87,14.72,14.72,0,0,0,1.53,3.56l.08.16A69.81,69.81,0,0,0,30,53c.95,1,1,5.27,1,6.69C31,59.87,31,60.06,31,60.26Z" fill="#fff"/></svg>