<svg xmlns="http://www.w3.org/2000/svg" width="140" height="120"><path d="M71.92 100.85A17.49 17.49 0 0 1 103.11 90l.74-.74a8 8 0 0 0 0-11.3L75.41 49.48a8 8 0 0 0-11.3 0L35.67 77.92a8 8 0 0 0 0 11.3l28.44 28.44a8 8 0 0 0 11.3 0l3.12-3.12a17.49 17.49 0 0 1-6.61-13.69z" fill="#22be73"/><path d="M89.42 85.67a15.19 15.19 0 1 0 15.18 15.18 15.2 15.2 0 0 0-15.18-15.18zm0 17.57a2.25 2.25 0 0 1-1.34-.45l-5.91 3.6-.77-1.27 5.84-3.56a2.21 2.21 0 0 1-.08-.59 2.25 2.25 0 0 1 1.52-2.13V88.65h1.48v10.19a2.26 2.26 0 0 1-.74 4.4zM68.07 39.89h3.38v4.35h-3.38zm0-8.7h3.38v4.35h-3.38zm0-8.69h3.38v4.35h-3.38zm40.19 59.38h4.35v3.38h-4.35zm8.69 0h4.35v3.38h-4.35zm8.7 0H130v3.38h-4.35z" fill="#22be73"/></svg>
