<svg xmlns="http://www.w3.org/2000/svg" width="140" height="120"><path fill="#fff" d="M125.97 84.53h4.16v5.36h-4.16zm0-10.72h4.16v5.36h-4.16zM38.74 84.39h4.16v5.36h-4.16zm0-10.72h4.16v5.36h-4.16zm0-10.72h4.16v5.36h-4.16z"/><path d="M134.23 91.33H101V86h2.8a7 7 0 0 0 7-7v-9.6a7 7 0 0 0-7-7h-9.63a7 7 0 0 0-6.94 7V79a7 7 0 0 0 6.94 7H97v5.33H71.9V86h2.8a7 7 0 0 0 7-7v-9.6a7 7 0 0 0-7-7h-9.6a7 7 0 0 0-6.95 7V79a7 7 0 0 0 6.95 7h2.8v5.33H13.75V86h2.8a7 7 0 0 0 7-7v-9.6a7 7 0 0 0-6.95-7H7a7 7 0 0 0-6.95 7V79a7 7 0 0 0 7 7h2.8v5.33H5.58A5.58 5.58 0 0 0 0 96.91v17.51A5.58 5.58 0 0 0 5.58 120h128.65a5.58 5.58 0 0 0 5.57-5.58V96.91a5.58 5.58 0 0 0-5.57-5.58z" fill="#fff"/><rect x="28.88" y="37.21" width="23.9" height="23.9" rx="7.15" ry="7.15" fill="#fff"/><rect x="116.1" y="48.87" width="23.9" height="23.9" rx="7.15" ry="7.15" fill="#fff"/></svg>