<svg id="Layer_1" data-name="Layer 1" xmlns="http://www.w3.org/2000/svg" width="75" height="75" viewBox="0 0 75 75"><title>Forum icon</title><circle cx="37.5" cy="37.5" r="37.5" fill="#797476"/><path d="M63.22,44.35c-2.19-1.56-5.55-.73-7.64-3.5,0,0-.78-.88,1-3s1.9-5.55,1.46-8.18a5.64,5.64,0,0,0-11,0c-.44,2.63-.3,6,1.45,8.18a4.16,4.16,0,0,1,1.15,2.32A8.77,8.77,0,0,1,52,41.32c3.31,2.35,3.13,6.87,3,8.14h9.87S65.41,45.91,63.22,44.35Z" fill="#fff"/><path d="M22.93,41.32a8.8,8.8,0,0,1,2.45-1.19,4.24,4.24,0,0,1,1.14-2.3c1.76-2.14,1.9-5.55,1.46-8.18a5.49,5.49,0,0,0-5.49-4.38A5.49,5.49,0,0,0,17,29.65c-.44,2.63-.3,6,1.46,8.18s1,3,1,3c-2.09,2.77-5.45,1.94-7.64,3.5s-1.66,5.11-1.66,5.11h9.81C19.81,48.19,19.63,43.67,22.93,41.32Z" fill="#fff"/><path d="M50.71,43.14a7.61,7.61,0,0,0-2.55-1.08c-2.36-.62-5-.78-6.9-3.25,0,0-1-1.08,1.2-3.73S44.81,28.22,44.27,25a7,7,0,0,0-13.6,0c-.54,3.25-.36,7.46,1.8,10.11s1.21,3.73,1.21,3.73c-1.86,2.45-4.51,2.63-6.86,3.24a7.84,7.84,0,0,0-2.59,1.09c-2.71,1.93-2.05,6.32-2.05,6.32H52.75S53.41,45.07,50.71,43.14Z" fill="#fff"/></svg>