<svg xmlns="http://www.w3.org/2000/svg" width="75" height="75" viewBox="0 0 75 75"><title>Github icon</title><circle cx="37.5" cy="37.5" r="37.5" fill="#797476"/><path d="M37.5 13a25.13 25.13 0 0 0-7.94 49c1.25.23 1.71-.55 1.71-1.21v-4.68c-7 1.52-8.47-3-8.47-3-1.17-2.9-2.8-3.67-2.8-3.67-2.28-1.56.17-1.53.17-1.53a5.3 5.3 0 0 1 3.83 2.59c2.24 3.84 5.87 2.73 7.31 2.09a5.33 5.33 0 0 1 1.59-3.36c-5.58-.64-11.45-2.79-11.45-12.42a9.76 9.76 0 0 1 2.59-6.75 9 9 0 0 1 .25-6.65s2.11-.67 6.91 2.58a23.74 23.74 0 0 1 12.6.01c4.79-3.25 6.9-2.58 6.9-2.58a9 9 0 0 1 .3 6.64 9.71 9.71 0 0 1 2.58 6.75c0 9.65-5.88 11.77-11.47 12.4a6 6 0 0 1 1.7 4.65v6.9c0 .67.46 1.45 1.73 1.2a25.13 25.13 0 0 0-8-49z" fill="#fff" fill-rule="evenodd"/><path d="M21.89 49.07c-.06.13-.25.16-.43.08s-.29-.25-.23-.38.25-.16.43-.08.29.26.23.38zm-.31-.23M22.91 50.21c-.12.11-.36.06-.52-.12a.39.39 0 0 1-.07-.52c.12-.11.35-.06.51.11a.39.39 0 0 1 .08.53zm-.24-.21M23.9 51.65c-.16.11-.41 0-.56-.21s-.16-.49 0-.6.4 0 .56.21.15.49 0 .6zm0 0M25.25 53.05c-.13.15-.43.11-.64-.09s-.28-.49-.14-.65.43-.11.65.1.28.49.13.64zm0 0M27.13 53.86c-.06.2-.35.29-.63.21s-.47-.32-.41-.52.34-.29.63-.2.47.31.41.51zm0 0M29.18 54c0 .21-.23.38-.53.39s-.54-.16-.55-.37.24-.38.54-.38.54.16.54.36zm0 0M31.1 53.69c0 .2-.17.41-.47.46a.48.48 0 0 1-.6-.27c0-.21.17-.41.47-.47s.56.07.6.28zm0 0" fill="#fff"/></svg>