<svg xmlns="http://www.w3.org/2000/svg" width="140" height="120"><path d="M110.21 99.3H88a6 6 0 0 0-6 6v2.47H60.77v-2.47a6 6 0 0 0-6-6h-9.41v-5.84a6 6 0 0 0 2.54-1.52l8.17-8.16a6.06 6.06 0 0 0 0-8.54l-8.17-8.16a6 6 0 0 0-2.54-1.52v-6.81h9.37a6 6 0 0 0 6-6v-8.4a6 6 0 0 0-6-6H32.54a6 6 0 0 0-6 6v8.4a6 6 0 0 0 6 6h9.37v6.81a5.93 5.93 0 0 0-2.54 1.52l-8.17 8.16a6.06 6.06 0 0 0 0 8.54l8.17 8.16a6 6 0 0 0 2.54 1.52v5.84h-9.37a6 6 0 0 0-6 6v8.39a6 6 0 0 0 6 6h22.19a6 6 0 0 0 6-6v-2.47H82v2.47a6 6 0 0 0 6 6h22.19a6 6 0 0 0 6-6v-8.39a6 6 0 0 0-5.98-6zM100.74 59.91a13.86 13.86 0 0 0-1.44-4.83l-3.06 1.6a10.2 10.2 0 0 1 1.07 3.61zM97.39 64.54h3.45v4.44h-3.45zM97.39 73.42h3.45v4.44h-3.45z" fill="#fff"/><path fill="#fff" d="M97.39 82.3h3.45v4.44h-3.45zM97.39 91.18h3.45v4.44h-3.45zM96.09 51.14a16.63 16.63 0 0 0-4.26-2.51l-1.32 3.19a12.92 12.92 0 0 1 3.38 2zM73.6 46.79h4.44v3.45H73.6zM64.72 46.79h4.44v3.45h-4.44zM87.23 47.29a28.75 28.75 0 0 0-4.71-.5l-.07 3.45a25.54 25.54 0 0 1 4.14.44z"/></svg>