<svg id="Layer_1" data-name="Layer 1" xmlns="http://www.w3.org/2000/svg" width="75" height="75" viewBox="0 0 75 75"><title>Stack Overflow icon</title><circle cx="37.5" cy="37.5" r="37.5" fill="#797476"/><polygon points="50.36 55.66 50.36 43.83 54.3 43.83 54.3 59.6 18.83 59.6 18.83 43.83 22.78 43.83 22.78 55.66 50.36 55.66" fill="#fff"/><path d="M27.12,42.74l19.29,4,.82-3.86-19.3-4Zm2.55-9.24,17.88,8.32,1.66-3.57L31.34,29.92Zm4.95-8.77L49.77,37.35l2.52-3L37.14,21.7ZM44.4,15.4l-3.17,2.35L53,33.57l3.17-2.35ZM26.73,51.71H46.44V47.77H26.73Z" fill="#fff"/></svg>