<svg xmlns="http://www.w3.org/2000/svg" width="75" height="75"  viewBox="0 0 75 75"><title>Asset 4</title><g id="Layer_2" data-name="Layer 2"><g id="Layer_1-2" data-name="Layer 1"><circle cx="37.5" cy="37.5" r="37.5" class="fill-current"/><path d="M28.79,57.26c18.67,0,28.88-15.49,28.88-28.93q0-.66,0-1.31a20.67,20.67,0,0,0,5.06-5.26,20.24,20.24,0,0,1-5.83,1.6,10.2,10.2,0,0,0,4.46-5.62,20.32,20.32,0,0,1-6.45,2.47,10.17,10.17,0,0,0-17.3,9.27A28.8,28.8,0,0,1,16.67,18.86a10.18,10.18,0,0,0,3.14,13.57,10.06,10.06,0,0,1-4.6-1.27s0,.08,0,.13a10.17,10.17,0,0,0,8.14,10,10.12,10.12,0,0,1-4.58.17,10.16,10.16,0,0,0,9.48,7.06,20.35,20.35,0,0,1-12.61,4.35,20.63,20.63,0,0,1-2.42-.14,28.71,28.71,0,0,0,15.56,4.57" fill="#fff" fill-rule="evenodd"/></g></g></svg>